<?xml version="1.0" standalone="no"?>
<!DOCTYPE svg PUBLIC "-//W3C//DTD SVG 20010904//EN"
 "http://www.w3.org/TR/2001/REC-SVG-20010904/DTD/svg10.dtd">
<svg version="1.0" xmlns="http://www.w3.org/2000/svg"
 width="237.000000pt" height="238.000000pt" viewBox="0 0 237.000000 238.000000"
 preserveAspectRatio="xMidYMid meet">
<metadata>
Created by potrace 1.10, written by Peter Selinger 2001-2011
</metadata>
<g transform="translate(0.000000,238.000000) scale(0.100000,-0.100000)"
fill="#000000" stroke="none">
<path d="M1038 2373 c18 -2 45 -2 60 0 15 2 0 4 -33 4 -33 0 -45 -2 -27 -4z"/>
<path d="M1307 2373 c18 -2 50 -2 70 0 21 2 7 4 -32 4 -38 0 -55 -2 -38 -4z"/>
<path d="M1200 2240 c0 -5 6 -10 14 -10 17 0 76 -68 76 -88 0 -7 -16 -36 -35
-65 -39 -58 -42 -72 -20 -93 8 -9 15 -12 15 -7 0 5 -5 14 -11 20 -18 18 11 53
38 47 23 -6 34 11 12 18 -6 2 -8 14 -4 30 6 24 8 25 32 13 26 -14 50 -43 70
-85 l11 -25 1 33 c1 23 -3 32 -15 32 -13 0 -15 7 -10 30 3 17 1 30 -4 30 -6 0
-10 -4 -10 -10 0 -5 -6 -7 -14 -4 -8 3 -11 15 -9 32 l4 27 -15 -25 -14 -25 -7
30 c-11 52 -28 76 -63 91 -41 17 -42 17 -42 4z"/>
<path d="M1187 2183 c-5 -7 -5 -18 -2 -24 4 -6 -8 -24 -26 -40 -18 -16 -30
-31 -28 -34 3 -2 20 10 38 29 22 23 32 41 29 57 -2 17 -6 20 -11 12z"/>
<path d="M1224 2158 c-1 -19 -14 -42 -36 -66 -45 -47 -58 -72 -58 -114 0 -51
19 -72 58 -63 43 9 47 19 17 49 -33 33 -32 48 10 103 23 31 35 57 35 78 0 42
-25 54 -26 13z"/>
<path d="M1310 2061 c0 -6 5 -13 10 -16 6 -3 10 -17 10 -30 0 -52 -21 -74
-117 -122 -143 -71 -185 -136 -128 -197 14 -15 25 -31 25 -36 0 -5 29 -9 65
-8 36 1 65 6 65 11 0 5 -11 23 -25 41 -44 58 -34 83 56 139 83 52 110 127 74
197 -15 29 -35 40 -35 21z m-135 -262 c-27 -42 -32 -64 -12 -53 10 6 10 4 0
-7 -15 -15 -17 -30 -4 -26 5 1 9 -1 10 -5 1 -5 -1 -7 -2 -5 -2 1 -11 -4 -20
-12 -15 -11 -17 -11 -17 2 0 9 -5 19 -12 23 -7 5 -9 2 -4 -7 4 -8 1 -6 -7 4
-15 18 -11 71 4 61 5 -3 9 2 9 11 0 9 5 13 10 10 6 -3 10 1 10 10 0 9 9 19 20
22 11 3 17 9 14 14 -3 5 2 6 10 3 13 -5 11 -12 -9 -45z"/>
<path d="M1808 2019 c-10 -5 -18 -17 -18 -25 0 -8 -10 -19 -22 -24 -22 -8 -22
-9 -2 -9 13 -1 25 8 32 24 15 34 34 32 51 -5 17 -39 0 -84 -37 -104 -25 -13
-26 -14 -4 -20 13 -4 24 -19 28 -34 10 -45 12 -48 13 -19 1 16 -4 37 -9 48 -9
15 -7 19 5 19 9 0 14 4 11 8 -3 5 2 27 10 51 14 41 14 42 -13 71 -22 23 -32
27 -45 19z"/>
<path d="M536 1968 c3 -5 18 -8 34 -8 45 0 85 -29 101 -74 16 -46 27 -52 54
-31 19 16 19 16 -2 5 -19 -9 -23 -8 -23 5 0 8 -6 24 -12 35 -11 16 -9 22 6 33
10 8 30 12 45 10 24 -3 24 -2 -3 7 -18 6 -36 6 -47 0 -18 -10 -69 3 -69 17 0
5 -20 8 -44 8 -24 0 -42 -3 -40 -7z"/>
<path d="M1798 1938 c-13 -13 -32 -18 -68 -18 -70 0 -123 -29 -143 -77 l-15
-38 30 -12 c48 -21 58 -17 51 17 -8 44 17 67 82 75 50 7 95 33 95 55 0 17 -15
17 -32 -2z"/>
<path d="M507 1933 c-11 -11 -8 -23 6 -23 7 0 18 -9 24 -19 10 -16 9 -25 -2
-48 -22 -42 -19 -61 5 -35 11 12 20 30 20 41 0 11 6 22 13 25 9 5 9 8 -2 12
-8 4 -24 17 -36 30 -12 13 -25 21 -28 17z"/>
<path d="M580 1923 c0 -3 7 -14 15 -24 9 -9 19 -47 24 -88 8 -78 27 -107 81
-128 30 -11 32 -11 46 22 20 49 18 58 -12 51 -14 -4 -34 -4 -44 -1 -20 6 -40
53 -40 95 0 31 -34 80 -56 80 -8 0 -14 -3 -14 -7z"/>
<path d="M725 1900 c3 -5 12 -10 20 -10 16 0 65 -56 65 -76 0 -8 -13 -53 -30
-101 -47 -135 -38 -198 32 -234 52 -27 75 -24 93 10 8 16 26 38 40 49 35 28
31 40 -12 35 -20 -2 -39 0 -42 4 -3 4 -15 13 -26 19 -26 14 -29 47 -11 117 15
58 14 70 -7 117 -14 29 -23 40 -57 63 -26 18 -75 24 -65 7z m90 -270 c-5 -24
-2 -34 22 -55 15 -13 33 -23 38 -21 6 2 11 -5 11 -15 0 -11 -4 -19 -8 -19 -4
0 -8 -7 -8 -15 0 -22 -21 -18 -55 9 -26 21 -29 29 -27 71 1 41 15 75 29 75 3
0 2 -13 -2 -30z"/>
<path d="M1755 1850 c-4 -6 -1 -10 5 -10 7 0 9 -8 4 -22 -6 -20 -5 -21 10 -6
9 9 16 21 16 26 0 14 -28 23 -35 12z"/>
<path d="M1282 1816 c-35 -20 -37 -24 -17 -46 17 -18 17 -21 1 -45 -14 -22
-15 -29 -5 -43 22 -29 42 -42 66 -42 20 0 22 4 16 30 -4 21 1 42 13 66 l19 35
-34 29 c-18 17 -34 30 -35 29 0 -1 -11 -7 -24 -13z"/>
<path d="M1790 1796 c0 -20 -57 -66 -83 -66 -24 1 -123 33 -134 44 -3 3 -37 6
-75 6 -61 0 -72 -3 -92 -25 -28 -30 -54 -117 -36 -123 6 -2 31 -19 56 -38 l44
-34 0 34 c0 19 5 38 10 41 6 3 10 15 10 26 0 37 39 40 172 12 64 -13 185 103
138 132 -5 3 -10 0 -10 -9z m-250 -48 c0 -4 -10 -8 -22 -10 -13 -2 -22 -9 -21
-15 2 -7 -6 -17 -16 -22 -10 -6 -21 -21 -25 -35 -7 -29 -46 -43 -46 -16 0 10
-4 20 -9 22 -19 7 10 48 47 65 39 18 92 24 92 11z"/>
<path d="M923 1737 c-23 -7 -35 -19 -42 -40 -14 -39 -14 -39 9 -32 25 8 50
-10 50 -36 0 -12 11 -24 26 -29 21 -8 37 -5 81 16 l55 26 -40 41 c-48 49 -94
67 -139 54z m59 -41 c4 -6 15 -11 24 -11 21 0 27 -30 9 -45 -10 -8 -19 -7 -34
6 -15 14 -18 20 -8 27 8 6 6 7 -6 3 -23 -8 -38 1 -31 18 6 16 36 17 46 2z"/>
<path d="M1568 1638 c-2 -15 -15 -28 -35 -37 -44 -19 -48 -49 -17 -110 15 -28
30 -51 34 -51 18 0 79 82 85 114 10 51 -2 93 -28 100 -33 9 -35 8 -39 -16z
m32 -79 c0 -17 -6 -32 -15 -35 -8 -4 -15 -12 -15 -20 0 -8 -4 -14 -10 -14 -5
0 -10 9 -10 19 0 11 -5 23 -11 27 -8 5 -6 10 5 16 9 5 16 15 16 21 0 7 9 13
20 14 16 1 20 -4 20 -28z"/>
<path d="M1121 1599 c-102 -30 -187 -123 -217 -238 -13 -52 -13 -67 0 -130 21
-100 81 -176 176 -224 37 -18 61 -22 135 -22 105 1 153 20 220 89 65 68 88
125 88 220 0 73 -4 87 -35 146 -70 133 -224 200 -367 159z m153 -34 c25 -4 46
-11 46 -16 0 -5 6 -6 14 -3 8 3 25 -6 39 -20 15 -14 24 -26 20 -26 -3 0 5 -9
18 -21 l24 -20 -30 6 c-16 3 -38 6 -48 6 -9 0 -15 4 -13 8 3 4 -15 13 -39 20
-48 14 -182 8 -199 -9 -6 -6 -21 -10 -34 -10 -15 0 -21 -4 -16 -12 5 -7 2 -9
-8 -5 -9 3 -21 0 -27 -6 -8 -8 -11 -8 -11 1 0 26 25 63 47 68 13 4 23 10 23
14 0 10 119 40 136 35 6 -2 32 -7 58 -10z m31 -105 c60 -24 113 -40 133 -40
22 0 30 -14 14 -24 -9 -5 -87 10 -117 23 -83 38 -120 38 -219 6 -85 -28 -156
-33 -156 -12 0 21 11 27 29 15 14 -8 33 -5 82 12 62 23 168 40 199 32 8 -2 24
-7 35 -12z m30 -65 c39 -13 82 -25 98 -25 15 0 27 -4 27 -10 0 -5 -3 -10 -7
-11 -5 0 -18 -2 -30 -3 -32 -4 -73 -34 -73 -55 0 -26 22 -41 48 -34 26 6 29
-9 6 -28 -19 -16 -54 -83 -54 -104 0 -25 16 -17 32 16 9 17 19 29 24 27 5 -2
10 7 12 20 2 12 7 20 12 17 4 -3 8 11 7 30 -1 19 -4 35 -8 35 -4 0 -9 9 -12
20 -3 11 -1 20 5 20 5 0 16 7 25 15 26 26 38 12 39 -46 2 -52 -31 -153 -46
-144 -3 2 -13 -5 -21 -17 -22 -33 -62 -68 -77 -68 -7 0 -20 -7 -29 -16 -9 -8
-22 -13 -29 -10 -8 3 -14 1 -14 -4 0 -10 -96 -7 -141 5 -29 7 -35 45 -7 45 26
0 68 22 68 35 0 6 11 18 25 25 14 7 25 20 25 27 0 8 5 11 12 7 8 -5 9 -2 5 10
-4 10 -3 15 3 11 6 -3 10 -1 10 4 0 6 4 11 10 11 5 0 6 -7 3 -17 -5 -12 -3
-14 7 -8 10 6 12 3 7 -14 -3 -13 -3 -29 0 -37 4 -11 7 -11 19 1 19 18 20 177
2 169 -7 -2 -31 -30 -53 -61 -52 -72 -106 -118 -161 -137 -38 -13 -49 -13 -78
-1 -18 8 -36 22 -40 30 -10 27 -7 80 6 93 13 13 57 16 74 4 20 -13 23 -50 4
-67 -16 -15 -19 -15 -34 1 -16 15 -16 18 0 35 14 16 14 19 3 19 -37 0 -50 -42
-22 -72 31 -34 113 -13 161 41 12 14 39 43 59 64 l37 38 -50 -6 c-52 -7 -151
18 -202 51 -17 11 -27 13 -35 5 -13 -13 7 -39 35 -43 12 -2 23 -9 26 -17 3
-10 -2 -12 -22 -7 -18 4 -26 2 -26 -6 0 -7 -12 -21 -25 -31 -25 -18 -25 -18
-27 5 0 13 -1 29 -1 35 1 7 -3 10 -8 7 -5 -3 -9 4 -9 15 0 12 5 21 10 21 6 0
10 -5 10 -12 0 -9 3 -9 12 0 10 10 10 15 -1 21 -7 5 -11 17 -9 27 2 14 15 21
48 25 25 3 68 15 95 26 71 30 153 29 240 -2z m-218 -138 c7 0 10 -5 6 -10 -3
-5 3 -6 16 -2 24 7 24 8 10 -34 -10 -29 -29 -43 -29 -21 0 34 -17 60 -35 54
-10 -4 -15 0 -15 11 0 12 5 15 18 10 9 -4 22 -8 29 -8z"/>
<path d="M1102 1372 l-62 -26 28 -12 c89 -37 193 -38 265 -2 45 23 47 34 6 42
-42 8 -51 8 -45 -2 3 -5 -2 -18 -10 -30 -11 -16 -26 -22 -53 -22 -46 0 -66 20
-57 55 8 30 8 30 -72 -3z"/>
<path d="M680 1443 c-25 -22 -57 -69 -83 -121 -43 -86 -71 -112 -120 -112 -12
0 -28 5 -35 12 -6 6 -15 8 -19 4 -15 -15 42 -46 85 -46 62 0 98 23 143 93 22
34 45 65 52 69 23 15 54 8 96 -22 45 -33 45 -33 55 37 3 23 8 47 11 55 4 14
-98 68 -129 68 -9 0 -34 -16 -56 -37z m86 -2 c-4 -5 8 -12 25 -16 23 -5 29
-11 24 -23 -4 -10 -10 -25 -13 -35 -4 -15 -7 -16 -13 -5 -12 20 -99 15 -111
-6 -16 -29 -27 -7 -12 24 10 18 20 27 29 23 10 -3 15 2 15 15 0 19 7 23 53 31
5 0 6 -3 3 -8z"/>
<path d="M1609 1457 c-13 -13 -32 -26 -41 -30 -20 -7 -23 -22 -8 -32 6 -3 10
-29 10 -57 l0 -50 33 21 c92 59 110 55 166 -34 46 -73 80 -95 145 -95 33 0 52
6 73 25 21 19 24 24 11 25 -9 0 -20 -4 -23 -10 -8 -13 -61 -13 -87 1 -11 6
-37 47 -58 93 -40 84 -78 134 -117 155 -35 18 -78 13 -104 -12z m89 -23 c18
-8 32 -20 32 -25 0 -15 26 -39 34 -32 3 4 6 -1 6 -10 0 -21 -14 -22 -30 -2 -9
11 -28 14 -82 10 -68 -4 -69 -4 -62 18 4 12 9 23 13 25 6 2 55 29 57 31 0 1
15 -6 32 -15z"/>
<path d="M450 1393 c-14 -10 -34 -26 -45 -36 -35 -33 -64 -49 -80 -44 -18 7
-30 -9 -14 -19 24 -15 71 -4 107 24 52 41 89 46 109 16 20 -32 28 -30 47 8 21
42 21 44 -15 57 -45 16 -81 14 -109 -6z"/>
<path d="M1870 1403 c-33 -12 -39 -23 -28 -54 14 -41 23 -43 54 -14 36 33 53
32 100 -8 49 -42 68 -49 99 -37 32 12 33 32 1 24 -18 -4 -33 3 -63 28 -74 66
-111 80 -163 61z"/>
<path d="M338 1378 c-3 -7 -17 -12 -35 -10 -17 1 -43 -5 -59 -13 -35 -18 -8
-21 31 -3 16 7 29 8 33 2 11 -15 32 -15 47 0 12 12 12 16 1 25 -11 9 -15 9
-18 -1z"/>
<path d="M2160 1328 c-1 -21 -36 -57 -68 -71 -25 -10 -27 -14 -16 -25 12 -10
14 -10 14 3 0 9 9 15 26 15 14 0 23 4 19 9 -3 5 5 17 17 25 12 9 19 16 15 16
-4 0 -3 9 3 20 7 14 7 20 0 20 -5 0 -10 -6 -10 -12z"/>
<path d="M1942 1307 c9 -7 25 -17 35 -23 15 -10 16 -13 4 -28 -8 -9 -9 -16 -3
-16 6 0 14 5 18 11 3 6 17 9 30 6 13 -2 24 -3 24 -2 0 2 -25 17 -55 34 -55 31
-85 41 -53 18z"/>
<path d="M425 1290 c-3 -5 0 -10 8 -10 8 0 17 -7 20 -15 4 -9 17 -13 36 -12
16 1 27 5 24 10 -2 4 -15 4 -28 1 -18 -4 -25 -1 -30 15 -7 23 -20 27 -30 11z"/>
<path d="M677 1260 l-18 -30 36 -37 c34 -35 41 -38 107 -41 l71 -4 -6 28 c-17
85 -54 119 -102 94 -21 -11 -27 -11 -43 3 -24 22 -25 22 -45 -13z m143 -59 c6
-23 6 -30 -3 -24 -7 4 -21 6 -33 5 -11 -2 -28 6 -38 17 -10 11 -24 18 -30 14
-7 -4 -8 -2 -1 5 8 8 80 21 93 16 1 -1 7 -15 12 -33z"/>
<path d="M1704 1273 c-10 -16 -15 -17 -47 -5 -52 19 -87 7 -87 -29 0 -16 4
-29 10 -29 5 0 25 -14 44 -31 42 -37 63 -33 105 17 27 34 28 37 14 65 -17 34
-24 36 -39 12z m-31 -42 c12 7 17 7 17 -1 0 -6 4 -8 10 -5 6 3 7 -1 4 -9 -3
-9 -10 -13 -15 -10 -5 3 -9 0 -9 -5 0 -15 -37 -14 -47 2 -4 6 -9 21 -10 31 -3
18 -2 18 14 3 13 -11 23 -13 36 -6z"/>
<path d="M1540 1145 c-28 -57 -21 -105 15 -105 25 0 51 -33 40 -50 -8 -13 16
-13 49 0 23 8 26 15 26 55 0 41 -5 51 -46 95 -26 28 -50 50 -54 50 -5 0 -18
-20 -30 -45z m74 -36 c-2 -3 3 -15 11 -25 8 -10 14 -30 14 -44 0 -22 -1 -23
-10 -7 -5 9 -16 17 -23 17 -8 0 -21 11 -30 25 -18 27 -21 39 -7 30 5 -3 12 4
16 15 5 16 9 17 20 7 7 -6 11 -15 9 -18z"/>
<path d="M836 1123 c-3 -4 -17 -8 -29 -10 -12 -2 -34 -17 -49 -33 -35 -38 -37
-92 -7 -170 48 -127 51 -165 16 -198 -13 -12 -29 -22 -35 -22 -7 0 -12 -7 -12
-16 0 -19 31 -11 73 18 48 34 86 135 57 153 -5 3 -10 17 -10 30 0 13 -4 27
-10 30 -5 3 -10 19 -10 35 0 37 36 66 94 74 l45 7 -34 45 c-19 25 -35 50 -35
55 0 10 -43 12 -54 2z m34 -47 c-1 -5 4 -12 11 -17 9 -5 2 -13 -23 -25 -20 -9
-42 -27 -49 -40 -6 -13 -17 -21 -22 -17 -6 4 -8 -2 -5 -14 3 -12 2 -27 -3 -34
-14 -22 -11 38 3 64 10 20 10 21 -5 8 -21 -17 -21 -8 -2 33 9 18 28 37 43 43
31 13 54 12 52 -1z"/>
<path d="M1474 1048 c-11 -13 -34 -34 -52 -48 -30 -24 -31 -27 -20 -63 29 -94
105 -112 243 -57 42 17 89 30 106 30 30 0 65 -26 87 -65 6 -11 14 -17 18 -13
13 14 -27 82 -63 111 -43 32 -82 35 -160 10 -80 -25 -104 -13 -123 60 l-16 58
-20 -23z m16 -84 c7 -16 14 -23 22 -18 9 5 9 2 -1 -9 -12 -15 -11 -17 8 -17
14 0 20 -4 15 -12 -5 -8 3 -9 29 -5 21 3 37 2 37 -2 0 -12 -83 -23 -104 -15
-22 8 -66 48 -66 59 0 12 31 45 42 45 5 0 13 -12 18 -26z"/>
<path d="M944 990 c-13 -5 -24 -21 -28 -40 -5 -28 -9 -31 -31 -26 -28 7 -32
-5 -15 -48 8 -23 15 -26 56 -26 54 0 103 26 135 71 12 17 20 31 18 33 -12 9
-97 46 -105 45 -5 0 -18 -4 -30 -9z m63 -44 c8 -6 -12 -46 -23 -46 -8 0 -14
-6 -15 -12 0 -9 -2 -9 -5 -2 -3 7 -14 10 -25 7 -20 -5 -20 -5 -2 30 15 30 22
35 43 30 14 -3 26 -7 27 -7z"/>
<path d="M1323 954 c-52 -19 -78 -60 -56 -89 17 -24 16 -30 -3 -49 -18 -19
-11 -34 23 -47 33 -12 62 6 87 53 15 28 17 46 12 91 -4 31 -10 57 -14 56 -4 0
-26 -7 -49 -15z m24 -79 c-3 -25 -9 -50 -12 -55 -10 -16 -21 -12 -22 8 -1 9
-4 29 -7 44 -3 19 1 31 12 38 30 17 34 11 29 -35z"/>
<path d="M1082 901 c-12 -21 -22 -51 -22 -65 0 -42 62 -100 154 -145 110 -52
133 -90 101 -163 -13 -31 13 -20 30 12 17 33 20 87 5 125 -10 27 -67 85 -84
85 -5 0 -24 11 -43 26 -36 27 -45 71 -20 96 7 7 21 24 30 38 l16 25 -73 2 -73
2 -21 -38z m82 -36 c-21 -51 -18 -81 9 -90 20 -6 20 -8 3 -12 -25 -7 -78 51
-73 80 7 41 18 54 47 55 l28 1 -14 -34z"/>
<path d="M653 878 c-34 -25 -43 -51 -43 -133 0 -43 -5 -57 -26 -79 -20 -19
-23 -26 -11 -26 47 0 77 43 77 113 0 56 25 82 70 74 34 -7 35 -6 18 40 -14 40
-39 43 -85 11z"/>
<path d="M1644 850 c-12 -5 -25 -13 -28 -18 -7 -11 20 -68 37 -79 29 -19 86
-33 131 -33 37 0 56 -6 73 -22 24 -23 31 -11 12 24 -13 24 -67 48 -111 48 -49
1 -72 22 -65 60 7 33 -6 38 -49 20z"/>
<path d="M543 696 c-13 -6 -23 -14 -23 -18 0 -4 -7 -5 -16 -1 -14 5 -14 3 -2
-16 10 -17 14 -18 16 -6 2 8 9 15 17 15 12 0 41 28 34 33 -2 2 -14 -2 -26 -7z"/>
<path d="M1145 667 c-30 -43 -19 -92 36 -165 31 -41 48 -73 46 -84 -6 -21 6
-24 22 -4 16 19 9 48 -20 87 -55 72 -56 82 -16 126 23 26 24 24 -20 46 -31 15
-34 14 -48 -6z"/>
<path d="M848 537 c6 -7 12 -32 14 -56 4 -65 28 -66 28 -2 0 28 5 51 10 51 6
0 10 5 10 10 0 6 -16 10 -36 10 -28 0 -34 -3 -26 -13z"/>
<path d="M922 493 c3 -52 5 -58 26 -61 13 -2 32 4 42 13 12 11 20 13 25 6 3
-6 17 -11 30 -11 16 0 26 8 33 28 9 24 11 24 11 5 1 -33 21 -39 22 -6 2 27 2
27 6 3 3 -14 9 -29 14 -34 15 -17 10 79 -6 100 -14 18 -14 18 -15 -8 0 -35
-17 -37 -26 -3 -3 14 -13 25 -21 25 -16 0 -15 -27 3 -75 4 -11 4 -17 -1 -13
-4 4 -14 3 -22 -3 -11 -9 -13 -2 -13 40 0 43 -3 51 -19 51 -20 0 -31 -18 -31
-53 0 -33 -17 -54 -31 -40 -6 6 -8 17 -4 24 5 7 9 25 10 41 2 22 -2 28 -17 28
-17 0 -19 -6 -16 -57z"/>
<path d="M870 390 c-12 -6 -14 -27 -12 -104 3 -86 5 -96 22 -96 15 0 19 9 22
48 2 26 7 45 12 44 5 -2 12 1 16 8 4 6 5 -14 2 -45 -4 -50 -3 -55 16 -55 19 0
21 7 24 96 2 79 0 98 -13 104 -24 13 -35 -1 -34 -45 0 -33 -3 -39 -19 -37 -12
2 -16 -1 -10 -9 4 -7 3 -10 -3 -6 -7 5 -7 19 0 47 12 44 2 65 -23 50z"/>
<path d="M1022 384 c-19 -13 -22 -24 -22 -88 0 -42 5 -79 13 -89 20 -26 60
-31 85 -9 19 17 22 29 22 95 0 67 -3 78 -22 91 -12 9 -29 16 -38 16 -9 0 -26
-7 -38 -16z m58 -92 c0 -83 -3 -94 -27 -85 -11 4 -14 22 -12 77 2 79 4 86 25
86 11 0 14 -17 14 -78z"/>
<path d="M1163 392 c-19 -12 -16 -199 3 -206 20 -8 34 26 27 69 -5 33 -4 37
13 33 16 -3 18 -11 16 -51 -3 -38 -1 -47 12 -47 9 0 19 -1 22 -2 12 -5 13 76
2 89 -8 10 -8 20 1 39 11 25 7 64 -7 64 -18 -1 -34 -20 -29 -34 9 -23 -2 -46
-19 -39 -8 3 -14 15 -13 27 4 61 -2 75 -28 58z"/>
<path d="M1298 394 c-10 -9 4 -179 16 -191 17 -17 61 -20 80 -4 13 11 16 33
16 108 0 90 -1 94 -21 91 -20 -3 -21 -10 -23 -92 -1 -62 -5 -91 -13 -93 -10
-4 -13 19 -13 91 0 86 -2 96 -18 96 -10 0 -21 -2 -24 -6z"/>
<path d="M1458 393 c-13 -3 -18 -15 -18 -41 0 -30 7 -43 40 -73 27 -25 38 -42
34 -53 -9 -23 -32 -20 -36 6 -4 30 -25 34 -33 7 -10 -31 28 -63 64 -54 32 8
41 21 41 62 0 24 -8 38 -37 61 -34 27 -36 32 -26 53 l12 24 7 -22 c8 -29 44
-31 44 -3 0 31 -41 46 -92 33z"/>
<path d="M386 320 c18 -18 36 -31 42 -29 6 2 -8 17 -31 33 l-42 29 31 -33z"/>
<path d="M1573 288 c9 -15 17 -34 17 -42 0 -8 3 -17 8 -19 4 -3 7 8 7 24 0 19
-8 34 -25 46 l-25 17 18 -26z"/>
<path d="M1424 183 c5 -8 1 -13 -11 -13 -17 -1 -17 -2 1 -15 28 -21 47 -1 22
23 -11 9 -16 11 -12 5z"/>
<path d="M1050 8 c0 -10 317 -10 323 -1 3 5 -69 8 -159 8 -90 0 -164 -3 -164
-7z"/>
</g>
</svg>
